<svg xmlns="http://www.w3.org/2000/svg" version="1.1" xmlns:xlink="http://www.w3.org/1999/xlink" width="1500" height="1500" viewBox="0 0 1500 1500"><rect width="1500" height="1500" x="0" y="0" id="background" stroke="transparent" fill="#ffffff"></rect><svg xml:space="preserve" width="1000" height="1000" data-version="2" data-id="lg_CH832wBE9skL09GXt6" viewBox="0 0 429 571" x="250" y="250"><rect width="100%" height="100%" fill="transparent"></rect><path fill="#05730a" d="M209.992 6.732 69.32 45.932v9.184c0 9.912-29.736 27.776-56.448 37.52L4.024 95.94v213.864c0 70.952 35.448 137.368 102.48 191.968a425.6 425.6 0 0 0 101.976 61.376l5.992 2.352 5.992-2.352c2.072-.84 51.744-20.552 101.92-61.376 67.088-54.6 102.592-120.96 102.592-191.968V95.884l-8.904-3.136c-26.712-9.8-56.448-27.664-56.448-37.576v-9.24L214.472 5.5z"></path><path fill="none" stroke="#fff" stroke-width="2" d="m49.2.22-25.12 7v1.64c0 1.77-5.31 4.96-10.08 6.7l-1.58.59v38.19c0 12.67 6.33 24.53 18.3 34.28a76 76 0 0 0 18.21 10.96L50 100l1.07-.42c.37-.15 9.24-3.67 18.2-10.96 11.98-9.75 18.32-21.6 18.32-34.28v-38.2L86 15.58c-4.77-1.75-10.08-4.94-10.08-6.71V7.22L50 0z" paint-order="stroke" transform="matrix(5.2527 0 0 5.3374 -48.161 18.825)"></path><path fill="#fff" d="M185.36 166.66h-8.72v-39.98h23.35l.05 7.89h-19.99l5.31-5.23v17.38l-5.34-3.38h18.56v7.92h-16.61l3.39-2.94zm28.98 0h-8.83v-39.98h8.83zm14.08 0h-10.06l12.18-19.91-11.96-20.07h10.06l4.13 7.86 3.76 7.23 3.63-7.17 4.02-7.92h10.09l-11.82 20.07 12.04 19.91H244.4l-4.51-8.19-3.49-6.96-3.36 7.01zm-99.05 49.1h-8.56v-39.98h14.52l5.06 22.16 1.41 6.85h.11l1.43-6.85 4.97-22.16h14.58v39.98h-8.55v-20.21l.85-12.93h-.28l-3.71 12.85-5.77 20.29h-7.07l-5.86-20.29-3.71-12.85h-.28l.86 12.93zm59.64-12.46h-8.66l-13.64-27.52h9.9l4.87 11.88 3.02 7.12h.33l3.06-7.1 4.86-11.9h9.9zm.06 12.46h-8.8v-17.74h8.8zm53.87 0h-29.62l15.93-29.97 2.33-2.67-3.32.22h-13.01v-7.56h28.57l-15.65 30.19-1.81 2.39 3.99-.19h12.59zm14.6 0h-8.82v-39.98h8.82zm17.25 0h-8.56v-39.98h14.52l5.06 22.16 1.41 6.85h.11l1.43-6.85 4.97-22.16h14.58v39.98h-8.55v-20.21l.85-12.93h-.28l-3.71 12.85-5.77 20.29h-7.07l-5.86-20.29-3.71-12.85h-.28l.86 12.93zM177.61 74.17q-1.66 0-2.83-.66-1.17-.66-1.79-1.91-.62-1.26-.62-3.04 0-1.84.66-3.1.66-1.27 1.86-1.92 1.2-.65 2.81-.65 1.56 0 2.62.59 1.07.59 1.62 1.74t.55 2.83q0 .21-.02.49-.01.27-.03.62h-7.02q.11 1.36.66 1.99.55.62 1.54.62.82 0 1.24-.36.43-.36.51-.95h2.98q-.09 1.13-.69 1.97-.59.83-1.62 1.29-1.03.45-2.43.45m-.92-6.76h2.81q-.04-1.05-.51-1.57-.46-.52-1.42-.52-1.13 0-1.65.81-.52.8-.53 2.28.08-.57.39-.78.31-.22.91-.22m11.47 6.78q-1.41 0-2.43-.41-1.01-.41-1.57-1.24-.56-.84-.62-2.13h3.03q.09.8.51 1.18.43.38 1.15.38.36 0 .69-.08.33-.09.54-.3.21-.22.21-.6 0-.31-.16-.5-.15-.2-.45-.33-.29-.14-.71-.25-.42-.12-.95-.28-.94-.28-1.76-.68-.81-.4-1.31-1.07t-.5-1.76q0-1.63 1.19-2.42 1.2-.79 3.14-.79 1.14 0 2.05.31.91.31 1.5 1.1.6.79.77 2.23l-3.01-.02q-.09-.64-.31-.95-.22-.32-.5-.42-.28-.11-.58-.11-.34 0-.62.11-.27.11-.43.32-.16.21-.16.53 0 .38.24.65t.73.48q.49.2 1.25.41.5.13 1.12.32.63.19 1.2.53.58.34.95.92.38.58.38 1.5 0 1.6-1.23 2.49-1.23.88-3.35.88m10.28-.04q-1.35 0-2.1-.68-.75-.69-.76-2.13l-.03-4.88q0-.38.21-.62.22-.24.61-.31l-.82-1.99v-.33l.57-3.23h2.53v10.4q0 .7.17.97.18.27.68.27t.83-.02q.34-.02.64-.07v2.45q-.36.13-1.08.15-.71.02-1.45.02m2.46-8.62h-6.51v-2.42h6.51zm3.07 8.64q-.72 0-1.23-.52-.51-.53-.51-1.36 0-.82.51-1.34.51-.52 1.23-.52t1.23.52q.51.52.51 1.34 0 .83-.51 1.36-.51.52-1.23.52m16.23-.15h-10.14q.66-.83 1.27-1.61.61-.78 1.18-1.52.58-.74 1.11-1.44l1.05-1.36q.95-1.24 1.53-2 .58-.77.85-1.33.27-.57.27-1.18 0-.71-.41-1.23-.4-.53-1.46-.52-.66 0-1.15.31-.49.31-.69.96-.2.64 0 1.64h-2.88q-.26-1.97.29-3.19.56-1.23 1.72-1.8 1.17-.57 2.74-.57 1.58 0 2.64.51t1.59 1.42q.53.9.53 2.09 0 1.15-.37 2.09-.37.93-.92 1.71-.54.77-1.06 1.47-.42.55-.84 1.11l-.84 1.1-.84 1.1q.33-.34.75-.44.42-.11 1.17-.11h2.91zm7.01.22q-1.6 0-2.82-.77-1.21-.78-1.89-2.45-.68-1.68-.68-4.36 0-2.6.68-4.25t1.89-2.43q1.22-.79 2.82-.79 1.61 0 2.81.79 1.21.78 1.88 2.43.68 1.65.68 4.25 0 2.68-.68 4.36-.67 1.67-1.88 2.45-1.2.77-2.81.77m0-2.87q.68 0 1.16-.43.49-.44.75-1.47t.26-2.79q0-1.73-.26-2.74-.26-1.01-.75-1.44-.48-.44-1.16-.44-.68 0-1.17.44-.49.43-.75 1.44t-.26 2.74q0 1.76.26 2.79t.75 1.47q.49.43 1.17.43m16.61 2.65h-10.14q.66-.83 1.27-1.61.61-.78 1.18-1.52.58-.74 1.11-1.44l1.05-1.36q.95-1.24 1.53-2 .58-.77.85-1.33.27-.57.27-1.18 0-.71-.41-1.23-.4-.53-1.46-.52-.66 0-1.15.31-.49.31-.69.96-.2.64 0 1.64h-2.88q-.26-1.97.29-3.19.56-1.23 1.72-1.8 1.17-.57 2.74-.57 1.58 0 2.64.51t1.59 1.42q.53.9.53 2.09 0 1.15-.37 2.09-.37.93-.92 1.71-.54.77-1.06 1.47-.42.55-.84 1.11l-.84 1.1-.84 1.1q.33-.34.75-.44.42-.11 1.17-.11h2.91z"></path><path fill="#fff" d="M253.83 74.02H251v-2.6h-7.2l5.12-11.94h4.94l-.05.04.01 9.36h1.86v2.54h-1.85zm-5.51-6.25-.68 1.52q.2-.23.43-.32.24-.09.63-.09h3.2q-.55 0-.73-.36-.17-.36-.17-.99v-2.82l.05-3.33-1.42 3.43zM126.627 473.29l9.149 9.148a12.633 12.633 0 0 0 18.296 0l61.86-61.86-18.733-18.296zm46.177-95.403-61.424 61.424a12.633 12.633 0 0 0 0 18.296l9.149 9.584 71.007-71.007zm104.987-43.563 20.91-8.712c.871-.436 1.743-.872 2.178-1.743l15.247-27.445c.872-1.742.872-3.92-.87-5.227l-12.199-12.198c-1.306-1.307-3.485-1.742-5.227-.871l-27.445 15.247c-.871.436-1.307 1.307-1.742 2.178l-8.713 20.91-40.513 40.514 18.732 18.296zm34.415 126.333L194.15 344.344c.436-.872.436-2.179.436-3.485 0-3.921-1.743-7.842-4.357-10.456-3.92-3.485-9.148-5.227-13.94-3.92.436-9.148-4.792-19.168-15.247-29.623-.871-.871-27.009-23.96-50.097-18.732-1.743 0-3.05 1.742-3.485 3.485 0 1.742.87 3.485 2.178 4.356 4.792 2.614 18.732 12.198 20.039 20.04 0 1.306 0 3.049-2.178 5.662-1.307 1.307-5.664 5.228-6.1 11.327-.435 4.792 1.743 8.712 6.1 13.069.87.87 13.504 11.762 27.009 11.762-.436.87-.436 2.178-.436 3.05 0 3.92 1.743 7.84 4.356 10.454 3.05 3.05 6.97 4.356 10.891 4.356 1.307 0 2.178 0 3.485-.435L290.86 482.003c3.05 3.05 6.97 4.356 10.89 4.356 3.921 0 7.842-1.307 10.891-4.356s4.357-6.535 4.357-10.455c0-3.921-2.179-7.842-4.792-10.891"></path><path fill="#fce41d" stroke="#fff" stroke-width="1.694" d="M87.17 106.043h255.09M89.989 242.316h255.088"></path></svg></svg>